/* XPM */
static char *error_xpm[] = {
/* columns rows colors chars-per-pixel */
"32 32 178 2 ",
"   c None",
".  c #6F6E6E",
"X  c #7C7B7B",
"o  c #910C0C",
"O  c #9A0B0B",
"+  c #980C0C",
"@  c #9B1212",
"#  c #A00B0B",
"$  c #A50A0A",
"%  c #AD0909",
"&  c #A90D0D",
"*  c #B10909",
"=  c #B40808",
"-  c #B90808",
";  c #BC0808",
":  c #A51010",
">  c #AE1111",
",  c #A51C1C",
"<  c #A81A1A",
"1  c #AF1C1C",
"2  c #B41313",
"3  c #B21D1D",
"4  c #9B3A39",
"5  c #A02222",
"6  c #A52020",
"7  c #A32425",
"8  c #A92121",
"9  c #A42C2B",
"0  c #AA2A2A",
"q  c #B62423",
"w  c #B92424",
"e  c #B32A2A",
"r  c #BB2A29",
"t  c #A23333",
"y  c #A73535",
"u  c #AE3233",
"i  c #A83937",
"p  c #A03C3C",
"a  c #B23333",
"s  c #B33B3B",
"d  c #BC3939",
"f  c #C00707",
"g  c #C40707",
"h  c #C30808",
"j  c #C90C0C",
"k  c #CE0D0D",
"l  c #D80D0D",
"z  c #CD1212",
"x  c #C01C1E",
"c  c #D21212",
"v  c #C12E2D",
"b  c #C62E2E",
"n  c #C52F31",
"m  c #C23434",
"M  c #CB3333",
"N  c #C33939",
"B  c #C93C3C",
"V  c #D23C3C",
"C  c #DB403E",
"Z  c #A24141",
"A  c #AF4949",
"S  c #B04344",
"D  c #B14545",
"F  c #BB4747",
"G  c #B14849",
"H  c #BA4848",
"J  c #BE4A4A",
"K  c #B85655",
"L  c #B75A59",
"P  c #B35F5F",
"I  c #BE5959",
"U  c #807F7F",
"Y  c #CD4141",
"T  c #C34A4A",
"R  c #CA494A",
"E  c #DB4342",
"W  c #D74848",
"Q  c #DC4B4B",
"!  c #C75455",
"~  c #CE5252",
"^  c #CB5C5D",
"/  c #D65051",
"(  c #DE5758",
")  c #D45C5C",
"_  c #E04646",
"`  c #E24D4E",
"'  c #E6504E",
"]  c #E35D5D",
"[  c #C16666",
"{  c #C06B6B",
"}  c #CF6B6B",
"|  c #DB6262",
" . c #C17171",
".. c #C47779",
"X. c #C77C7D",
"o. c #CE7D7F",
"O. c #DB797A",
"+. c #E36565",
"@. c #E96565",
"#. c #E16B6B",
"$. c #E57778",
"%. c #E37B7B",
"&. c #CB807F",
"*. c #818080",
"=. c #8F8E8E",
"-. c #919090",
";. c #959595",
":. c #A2A2A1",
">. c #A9A8A8",
",. c #B7ACAC",
"<. c gray69",
"1. c #BEB5B5",
"2. c #B9B8B8",
"3. c gray",
"4. c #CD8B8B",
"5. c #D48688",
"6. c #D18C8D",
"7. c #DB8F8F",
"8. c #D69596",
"9. c #D19999",
"0. c #D59B9B",
"q. c #E39E9E",
"w. c #E89D9E",
"e. c #CFACAC",
"r. c #D6A2A1",
"t. c #DCA7A8",
"y. c #D0AAAA",
"u. c #D9A8A8",
"i. c #DCADAD",
"p. c #CDB1B1",
"a. c #C1BFBF",
"s. c #CCBABA",
"d. c #D0B2B2",
"f. c #DDB5B5",
"g. c #D6BDBD",
"h. c #E4A6A7",
"j. c #E1AEAD",
"k. c #E2B5B5",
"l. c #F7B2B2",
"z. c #BFC0BF",
"x. c #E0C0BE",
"c. c #E1BEC0",
"v. c #BDC3C3",
"b. c #C0C0C0",
"n. c #C6C6C6",
"m. c #C3CACA",
"M. c #CBCBCB",
"N. c #D5C1C1",
"B. c #D0CECE",
"V. c #DCCCCB",
"C. c #CBD4D4",
"Z. c #CED8D8",
"A. c #D2D2D2",
"S. c #D8D6D6",
"D. c #D4D9D9",
"F. c gray85",
"G. c gray87",
"H. c #E5C2C3",
"J. c #E0C8C7",
"K. c #E3CAC8",
"L. c #E8CACA",
"P. c #EACDCD",
"I. c #E3D3D2",
"U. c #E8D2D2",
"Y. c #EAD9D9",
"T. c #DCE0E0",
"R. c #DAE4E4",
"E. c #DFE6E6",
"W. c #DEEEEC",
"Q. c #E0E1E1",
"!. c #E5E3E3",
"~. c #EDE5E5",
"^. c #EEECEC",
"/. c #FDEAEA",
"(. c #EBF3F3",
"). c #F3F2F2",
"_. c #FFF2F2",
"`. c gray98",
/* pixels */
"                        >.=.X . . X -.>.                        ",
"                  >.*.:.a.F.^.`.`.^.F.b.:.U >.                  ",
"              ,.-.a.^.U.H.t.7.5.o.6.q.c.Y.^.3.=.<.              ",
"            ;.3.~.H.j.w.#.] ( ( ` / ~ ~ ^ r.J.~.2.;.            ",
"          =.B.U.j.w.@.( ' ` ` Q / Q W W W R T 6.P.A.=.          ",
"        ;.!.k.h.$.( ' ` ` Q Q W W W Y W Y Y B J F i.Q.;.        ",
"      ;.B.k.q.+.' _ C E Q Q Q E Y E Y Y N m m N d D i.B.;.      ",
"    <.3.P.7.+.` E @.l.@.V E Y E Y Y Y n R q.^ r d d s P.2.<.    ",
"    =.^.8.%.` E ] /.`./.) M E Y N B v R J.W.I.! e a a K ^.=.    ",
"  >.3.K.O.Q E ( /.`.`.`./.) b B B v T J.T.B.D.V.H 8 u u r.z.>.  ",
"  U ^.u.| E V ( _.`.`.`.`./.) r r T J.R.D.B.~.).G 8 0 0 I ^.U   ",
"  :.Y.} E E E M | _.`.`.`.`.~.R J x.F.B.B.W.).p O # # @ 0 I.:.  ",
">.b.x.~ E V Y B v ) /.`.(.^.(.I.g.D.C.M.!.).p O # # # # , 0.b.>.",
"=.F.0.R V B B B N r ^ ~.(.!.F.E.D.M.m.!.).p O # # # # # : { F.=.",
"X ^.&.B B B B N m N 3 T L.E.D.B.B.M.!.).Z O # $ $ # # # # D ^.X ",
". `.I B B m m m d w * & J B.B.B.M.b.(.P O & $ $ $ # # & # 9 `.. ",
". `.[ m m v d r 2 % & 1 y.C.B.M.b.b.b.d.e # & % $ % % # & y `.. ",
"X ^.X.d d d w * % & 1 d.Z.M.b.m.b.b.3.v.s.e & % * * & = = A ^.X ",
"=.S.9.d d r & & # 1 d.C.M.m.!.^.,.v.3.b.M.N.e & * * - = =  .F.=.",
">.3.x.s a = # & > p.C.M.n.!.^.p 6 ,.m.b.C.F.L.w * - - ; & r.b.>.",
"  :.I.s > # & > e.Z.M.m.!.(.Z O $ 8 1.Z.S.!.(.U.x g - h 8 U.:.  ",
"  U !.D > # # 7 s.M.b.!.^.4 O # & % 0 N.W.^.`.^.v g g h 4.^.*.  ",
"  >.3.0., # # O y 2.E.^.4 + # % % % * q V.`.).F - k k > x.3.>.  ",
"    =.^.D : O O + t s.4 O # $ # & * * - v j.T f k k z D ^.;.    ",
"    <.3.L.7 @ O + + o + O # & % % * - - g - g k l c 8 P.3.>.    ",
"      ;.B.i., @ + o + + O # # & * * f f j j l l c < i.B.;.      ",
"        =.G.i.5 @ + + + O # & % = = - h j k k c 8 f.G.;.        ",
"          ;.B.L.S @ @ + O # # * = - h h k z > G P.B.;.          ",
"            ;.3.^.x...5 @ : & & = - - 2 : K i.^.3.;.            ",
"              <.=.3.^.Y.f.4.L i 9 G  .r.U.^.3.=.<.              ",
"                  >.U :.b.F.^.`.`.^.F.b.:.U >.                  ",
"                        >.=.X . . X =.>.                        "
};
