/* XPM */
static char *information_xpm[] = {
/* columns rows colors chars-per-pixel */
"32 32 195 2 ",
"   c None",
".  c #404F7B",
"X  c #4A5678",
"o  c #6F6E6E",
"O  c #7C7B7B",
"+  c #807F7F",
"@  c #0B30A4",
"#  c #0C30AC",
"$  c #1A3FAD",
"%  c #0E2FB4",
"&  c #0E30B4",
"*  c #1635B5",
"=  c #1C3FB3",
"-  c #1231B9",
";  c #1837B8",
":  c #1B3BBC",
">  c #2C4383",
",  c #334885",
"<  c #33468A",
"1  c #354988",
"2  c #29459B",
"3  c #304493",
"4  c #324993",
"5  c #374B92",
"6  c #364996",
"7  c #33479C",
"8  c #314D99",
"9  c #375092",
"0  c #1C41AC",
"q  c #1D42B2",
"w  c #2445A2",
"e  c #2E46A3",
"r  c #2C49A2",
"t  c #2144AE",
"y  c #2845AD",
"u  c #2D47AE",
"i  c #2548AC",
"p  c #344CAA",
"a  c #3251A6",
"s  c #3E5DAC",
"d  c #2C47B4",
"f  c #244AB3",
"g  c #2A4FB4",
"h  c #2346B9",
"j  c #2545B9",
"k  c #2141BD",
"l  c #2C47BA",
"z  c #2E48B8",
"x  c #3149B4",
"c  c #2C53BB",
"v  c #3558B3",
"b  c #3C5EB7",
"n  c #365BBB",
"m  c #395EBF",
"M  c #3E60B3",
"N  c #3E62BE",
"B  c #424E83",
"V  c #414F89",
"C  c #455383",
"Z  c #4A5587",
"A  c #4E5880",
"S  c #435995",
"D  c #475F9F",
"F  c #5B6380",
"G  c #5E6680",
"H  c #5F6685",
"J  c #4D629B",
"K  c #5E6C91",
"L  c #5E709A",
"P  c #656C81",
"I  c #686E86",
"U  c #6A7184",
"Y  c #6E7484",
"T  c #6B728A",
"R  c #667395",
"E  c #697597",
"W  c #66759A",
"Q  c #747C92",
"!  c #425EAA",
"~  c #4663AC",
"^  c #4968B4",
"/  c #4365BC",
"(  c #4E6DB8",
")  c #5E77B5",
"_  c #5472B9",
"`  c #687EB7",
"'  c #2041C0",
"]  c #2442C3",
"[  c #2241C5",
"{  c #2945C3",
"}  c #2B48C3",
"|  c #2443C8",
" . c #355CC3",
".. c #385EC2",
"X. c #3A61C5",
"o. c #3C63CA",
"O. c #3F68CD",
"+. c #3A65D0",
"@. c #476BC4",
"#. c #4C6FC3",
"$. c #4269CD",
"%. c #5172C3",
"&. c #5A79C4",
"*. c #5276CF",
"=. c #577ACF",
"-. c #436BD1",
";. c #4770D1",
":. c #4A72D5",
">. c #4C74D8",
",. c #4F78DB",
"<. c #567BD7",
"1. c #5179DC",
"2. c #5B7FD8",
"3. c #617EC8",
"4. c #4D79E1",
"5. c #537CE1",
"6. c #7D838F",
"7. c #7387BC",
"8. c #6283D4",
"9. c #6789DE",
"0. c #6D8DDF",
"q. c #7D95D2",
"w. c #5780E4",
"e. c #5B83E4",
"r. c #5B84E8",
"t. c #6287E3",
"y. c #6A8CE3",
"u. c #638AE9",
"i. c #7392E2",
"p. c #7C99E4",
"a. c #818080",
"s. c #8F8E8E",
"d. c #838A9A",
"f. c #919090",
"g. c #959595",
"h. c #93969F",
"j. c #94979F",
"k. c #8D94A5",
"l. c #8691AC",
"z. c #9598A0",
"x. c #8895B8",
"c. c #8D9ABF",
"v. c #9EA0A6",
"b. c #9CA2AE",
"n. c #99A3BF",
"m. c #A2A2A2",
"M. c #A6A8AD",
"N. c #A9A8A8",
"B. c #AFAEA9",
"V. c #B4B3AF",
"C. c #A8AAB0",
"Z. c #A9AFBE",
"A. c gray69",
"S. c #BCBAB7",
"D. c #B4B5B8",
"F. c #B6B8BC",
"G. c gray75",
"H. c #92A2CB",
"J. c #9FABCB",
"K. c #A2B2DB",
"L. c #AFBBD8",
"P. c #B8BFD2",
"I. c #9AB2EE",
"U. c #91ADF2",
"Y. c #A7BAE8",
"T. c #A5BDF5",
"R. c #BFC0C1",
"E. c #B9C0D3",
"W. c #B8CBF9",
"Q. c #C0C0C0",
"!. c #C6C5C1",
"~. c #C1C2C4",
"^. c #C6C7C9",
"/. c #CACACA",
"(. c #D0D0CF",
"). c #C7CCDD",
"_. c #D3D4D5",
"`. c #D5D7D8",
"'. c #D9D9DA",
"]. c #DBDCDC",
"[. c #E0DFDE",
"{. c #E1E0DE",
"}. c #C3CCE6",
"|. c #CDD5EA",
" X c #DFDFE3",
".X c #DBE4FB",
"XX c #E2E2E1",
"oX c #EBE9E7",
"OX c #E0E4ED",
"+X c #EBEBED",
"@X c gray93",
"#X c #F2F1EF",
"$X c #F4F4F3",
"%X c #F4FAFF",
"&X c #FBFBFB",
/* pixels */
"                        N.s.O o o O s.N.                        ",
"                  N.a.m.Q.'.@X&X&X@X'.Q.m.O N.                  ",
"              N.g.R.@X'.R.Z.n.c.x.l.z.C.`.@XR.s.B.              ",
"            g.G.@X^.E.I.p.i.y.0.9.2.8.3.` d.F.@XF.g.            ",
"          g.(.'.P.I.i.y.u.u.r.5.4.5.1.<.=.&.) d.]._.f.          ",
"        g.XX/.L.p.9.u.r.r.r.r.U.T.0.4.,.>.>.#._ W ~.XXf.        ",
"      g.(./.K.i.t.r.e.r.w.5.W.&X&X%X9.-.:.-.*.@.( L ~._.g.      ",
"    A.G.'.J.0.e.e.e.w.w.5.e.&X&X&X&XY.+.:.$.$.X.@.^ K ].F.B.    ",
"    s.@Xb.i.2.w.5.5.5.5.,.4..X&X&X&Xq.+.-.$.O.O.X.N ~ Q +Xs.    ",
"  N.R.R.q.2.1.1.,.,.,.,.,.>.2.|.OXH...-.$.o.O...X.m b D D.Q.M.  ",
"  a.@Xk.8.*.,.>.>.,.,.,.>.>.O.o.m  .-.$.O.O... . .m m s U +Xa.  ",
"  m.(.7.*.>.>.,.,.>.>.-.>.-.:.:.:.:.$.c c g g i g t g a S (.m.  ",
"N.Q.M.&.*.-.-.-.-.-.-.-.-.-.K.&XoX}.> @ $ $ $ $ $ $ w 0 8 j.Q.N.",
"s.'.d.%.$.$.-.O.-.O.-.;.+.c (.!.Q.XX1 @ $ $ t $ $ $ 0 0 4 U '.s.",
"O @XQ #.$.O.O.O.O.O.+.c 0 t (.Q.G.{., @ t $ $ $ t $ $ 0 2 A @XO ",
"o &XE @.o.o.o.o.O. .f 0 $ f /.S.A.{., @ $ $ $ $ $ $ $ t w . &Xo ",
"o &XR / ..o.o.o.c t 0 q 0 f ^.V.V.[., @ t $ $ $ $ $ $ $ w . &Xo ",
"O @XT / .. . .c q 0 0 0 = f ^.N.N.{.1 @ = = = = = $ $ t w X @XO ",
"s.'.6.M n  .c t 0 q $ t $ f ^.B.A.{., # q = = = = = = t e P '.s.",
"N.Q.v.! n c t t t t t $ $ h ^.V.A.oX, # k = = = = = = t 2 h.Q.N.",
"  m.(.J v f t t q t q q = f /.S.Q.XX1 # k k k k k k q y < (.m.  ",
"  + @XT a i t q t q q q = h (.!./.@X, & k ' k k : k t u F @X+   ",
"  N.G.D.9 r t t q q t q q h `.(.XX#X1 % ] ' ' ' k j d 3 D.G.N.  ",
"    s.@XY a i f q q k q = k  XoX$X$X1 % ] ] ] ] ] j p T @Xg.    ",
"    A.G.(.A r i q q t k q k @X&X&X$X1 - ] | ] ] l x Z '.G.N.    ",
"      g.(.R.C r y q q k : k P.$X$X).> - | | ] } x V Q.(.g.      ",
"        f.[.Q.A r y t j k k < C C B d [ | { z x Z Q.XXg.        ",
"          g.(.(.Y 5 u y j j : * * ; ] } z x 7 T '.(.g.          ",
"            g.G.@XA.G 5 e u d l l z x u 6 H F.@XG.g.            ",
"              A.s.G.@X(.h.P A B B A I z.(.@XG.s.A.              ",
"                  N.+ m.Q.'.@X&X&X@X'.Q.m.+ N.                  ",
"                        N.s.O o o O s.N.                        "
};
