/* XPM */
static char *question_xpm[] = {
/* columns rows colors chars-per-pixel */
"32 32 203 2 ",
"   c None",
".  c #394E7C",
"X  c #43557D",
"o  c #6F6E6E",
"O  c #7C7B7B",
"+  c #807F7F",
"@  c #06308C",
"#  c #0C338C",
"$  c #12378F",
"%  c #14398E",
"&  c #0D3592",
"*  c #0F3896",
"=  c #0E3698",
"-  c #0E389D",
";  c #143A94",
":  c #193D92",
">  c #123B9B",
",  c #193F9A",
"<  c #0C37A1",
"1  c #143DA2",
"2  c #1D4095",
"3  c #1D4299",
"4  c #234186",
"5  c #2A468B",
"6  c #364F8E",
"7  c #2D4A92",
"8  c #214599",
"9  c #25499C",
"0  c #2A4B9D",
"q  c #354F93",
"w  c #3D579D",
"e  c #1640A5",
"r  c #1B44A3",
"t  c #1F47AB",
"y  c #244AA0",
"u  c #234AAC",
"i  c #284FAD",
"p  c #364EAD",
"a  c #2C50A4",
"s  c #2B51AC",
"d  c #3151A2",
"f  c #3453A2",
"g  c #3955AC",
"h  c #3759AE",
"j  c #3959AA",
"k  c #3959AD",
"l  c #3E5EAE",
"z  c #274FB0",
"x  c #354CB3",
"c  c #344BBD",
"v  c #2650B4",
"b  c #2B53B2",
"n  c #2A53B9",
"m  c #3955B2",
"M  c #3359B7",
"N  c #3F5CB2",
"B  c #3F5CB5",
"V  c #3253BB",
"C  c #43558F",
"Z  c #4C5C89",
"A  c #435594",
"S  c #475894",
"D  c #475B9E",
"F  c #546181",
"G  c #5D6881",
"H  c #5E6988",
"J  c #4A629B",
"K  c #596696",
"L  c #526698",
"P  c #6E7586",
"I  c #737B8E",
"U  c #6B7694",
"Y  c #62729B",
"T  c #4758A0",
"R  c #405DA4",
"E  c #4F5FA2",
"W  c #405CBA",
"Q  c #4F61A0",
"!  c #4A66A8",
"~  c #4E68AB",
"^  c #5A6DA0",
"/  c #5D71A2",
"(  c #5E74AC",
")  c #4C66B8",
"_  c #5368B6",
"`  c #5570B3",
"'  c #5B78BF",
"]  c #6475A1",
"[  c #6077B2",
"{  c #2B45C9",
"}  c #3A55C4",
"|  c #345CC2",
" . c #3D5AC0",
".. c #3D59C4",
"X. c #3350CC",
"o. c #3450CD",
"O. c #3854C9",
"+. c #2D4AD1",
"@. c #3660C7",
"#. c #3961C5",
"$. c #3661CD",
"%. c #3C64CB",
"&. c #3E68D3",
"*. c #3B67D8",
"=. c #3F6AD9",
"-. c #405CC0",
";. c #4468C2",
":. c #446ACB",
">. c #5375CC",
",. c #436DDB",
"<. c #4B72DA",
"1. c #567CDD",
"2. c #416DE0",
"3. c #4671E2",
"4. c #4C76E5",
"5. c #537AE2",
"6. c #537CE8",
"7. c #7481A2",
"8. c #7E86A4",
"9. c #7F8AA3",
"0. c #7A87A8",
"q. c #6F83BF",
"w. c #7282B6",
"e. c #7286B8",
"r. c #7788B8",
"t. c #7889BE",
"y. c #5E82DA",
"u. c #778DC2",
"i. c #7D8EC0",
"p. c #7990CF",
"a. c #7290DE",
"s. c #6A8DE9",
"d. c #6E91EC",
"f. c #7092ED",
"g. c #7A9AED",
"h. c #8F8E8E",
"j. c #908F8F",
"k. c #828895",
"l. c #888E9D",
"z. c #959595",
"x. c #8E94A5",
"c. c #8592B5",
"v. c #8593B9",
"b. c #8A98BF",
"n. c #9DA3B4",
"m. c #97A0B9",
"M. c #9BA3B9",
"N. c gray63",
"B. c #A9A8A8",
"V. c #A8AAB0",
"C. c #ADAFB4",
"Z. c #A2A7BA",
"A. c #AEB1BA",
"S. c gray69",
"D. c #B8B7B7",
"F. c #B4B5BB",
"G. c gray72",
"H. c #C1BDBD",
"J. c #8999C5",
"K. c #8498CE",
"L. c #9AA7CA",
"P. c #99AAD1",
"I. c #9BADDF",
"U. c #A2AAC4",
"Y. c #AEB3C3",
"T. c #B2B6C3",
"R. c #BEBEC3",
"E. c #AAB8D9",
"W. c #819EEF",
"Q. c #92A7E1",
"!. c #A3B5E3",
"~. c #A1B5E9",
"^. c #C0BFC3",
"/. c #BFC0C1",
"(. c #BEC2CE",
"). c #BBC2D5",
"_. c #B7C0DA",
"`. c #BFC8DF",
"'. c #B6C4EC",
"]. c #BAC7E9",
"[. c #B1C3F1",
"{. c #C0C0C0",
"}. c #C6C4C7",
"|. c #C7C8CB",
" X c gray80",
".X c #C6C9D1",
"XX c #CDCDD1",
"oX c #C2C9DA",
"OX c #D1CED0",
"+X c #D3D2D2",
"@X c #D1D0D6",
"#X c #D8D6D6",
"$X c #D0D2D8",
"%X c gray85",
"&X c #DDDAD9",
"*X c #D4DAED",
"=X c #E1E1E1",
"-X c #EDECED",
";X c #EBF1FF",
":X c #F3F3F5",
">X c #F2F3F8",
",X c gray98",
"<X c #F9F9FC",
/* pixels */
"                        B.j.O o o O h.B.                        ",
"                  B.+ N.{.%X-X,X,X-X%X{.N.O B.                  ",
"              S.j.G.-X%X/.Y.L.i.t.J.U.T.%X-X/.j.S.              ",
"            z.S.-X X).I.s.4.2.2.,.*.*.%.>.b.}.-XG.z.            ",
"          j.+X=X|.~.d.4.2.,.,.&.&.&.*.%.$.| | v.%X+Xj.          ",
"        j.=XOX`.W.6.2.,.,.,.=.*.*.%.%.%.%.%.| n ` |.=Xj.        ",
"      z.+XOX].f.3.,.,.,.*.<.y.a.a.y.:.| | | M | v N }.+Xz.      ",
"    B.G.=X_.f.,.3.,.=.1.[.;X,X,X,X,X;X!.;.n h M h z R %XF.S.    ",
"    z.-XA.g.,.,.<.&.&.[.,X,X,X,X,X,X,X,X*X;.b h i i y ] -Xz.    ",
"  B.G.{.Q.5.=.,.&.&.$.'.,X,X,X,X,X,X,X,X,XE.z i i i a 8 T.G.B.  ",
"  + -Xn.d.&.,.&.&.%.$.'.,XoXJ.u.P.>X,X,X,X-Xh i i f a 9 L -X+   ",
"  N.+XK.<.&.&.%.%.%.| p.r.b b n t K.,X,X<X>XQ u a a a a 3 XXN.  ",
"B.{.V.y.&.%.%.;.%.%.#.M n M M M b ' -X-X:X-Xd 8 , 3 3 3 : 9.{.B.",
"h.%Xx.<.%.%.%.#.#.| | | M M b u 1 e.@X%X-X).: , 3 3 3 8 2 Z %Xh.",
"O -X7.&.%.%.%.| | | h M b u e < ~ F.^.@X-X/ ; 3 3 8 2 3 3 5 -XO ",
"o ,X] %.| | | | M M b u 1 1 1 ( S.F.R.+Xc.: 3 3 3 3 0 2 3 q ,Xo ",
"o ,XY @.| | | M b t e e 1 > ( H.F.F.{.] : 0 0 a 9 a y a 0 7 ,Xo ",
"O -XU | M M p b t 1 1 > > r T.{.}.R.L : a d d f f f f a a q -XO ",
"h.%Xk.n M b b e 1 1 > > - R XXXX+X0.8 f f j j f g g g h p A %Xh.",
"B.{.N.h b i e 1 > > > > * ! +X+X+X^ a j k k k B N k k m h 7.^.B.",
"  N.+XJ i e > > > > ; ; , 0 / / ] w g k B l B B N N  .m h (.N.  ",
"  + -XI e > > > $ & ; ; 8 8 8 f h s k B B W  .B W  .N  .D -X+   ",
"  B.G.G.5 - = & & $ ; 2 2 T m.F.T.q.m  .B W -.-..... .V M.{.B.  ",
"    h.-XP & & & & & % 2 9 m.^.G.^..X)  .........} ..} Q -Xh.    ",
"    S.D.%XX @ # # $ : 8 0 T.}.^.{.#X_ } ..} O.o.O.o.p $XG.S.    ",
"      z.+X/.. # # % 2 8 9 r.+X$X&XU.m } O.o.X.X.X.x T.+Xz.      ",
"        j.=X/.. # % 2 0 f f [ v.w.g } O.o.X.X.+.x Y.=Xj.        ",
"          j.+X%XG 4 2 0 f g h p V ..} o.X.+.{ E $X+Xj.          ",
"            z.D.-XC.F 6 f k N W -...O.o.c T Z.-XD.z.            ",
"              S.h.{.-XXXl.H Z C A S K 8..X-X{.h.S.              ",
"                  B.O N.{.%X-X,X,X-X%X{.N.O B.                  ",
"                        B.h.O o o O h.B.                        "
};
