/* XPM */
static char *warning_xpm[] = {
/* columns rows colors chars-per-pixel */
"32 32 203 2 ",
"   c None",
".  c black",
"X  c #03030C",
"o  c #080916",
"O  c #171922",
"+  c #1E1F24",
"@  c #161B33",
"#  c #3A3829",
"$  c #202435",
"%  c #292A38",
"&  c #3D3B31",
"*  c #34353B",
"=  c #37383C",
"-  c #453900",
";  c #4D3D00",
":  c #554200",
">  c #5D4A00",
",  c #534A15",
"<  c #765A00",
"1  c #4C4324",
"2  c #46453D",
"3  c #534F3D",
"4  c #655E2D",
"5  c #645A38",
"6  c #6C673A",
"7  c #353844",
"8  c #404041",
"9  c #45464B",
"0  c #4D4E4F",
"q  c #5A5544",
"w  c #55544A",
"e  c #4A4B56",
"r  c #5F5D57",
"t  c #56575B",
"y  c #706E45",
"u  c #7F7D45",
"i  c #747151",
"p  c #76755B",
"a  c #5B5C64",
"s  c #5E5E74",
"d  c #6D6D65",
"f  c #65656A",
"g  c #676771",
"h  c #64657B",
"j  c #806506",
"k  c #907000",
"l  c #B48900",
"z  c #BB9100",
"x  c #BB8F1F",
"c  c #9D863E",
"v  c #989533",
"b  c #B38823",
"n  c #B18C36",
"m  c #BC9637",
"M  c #BBA63E",
"N  c #C38B06",
"B  c #D19C06",
"V  c #DA9803",
"C  c #D19F19",
"Z  c #CFAD05",
"A  c #D1A100",
"S  c #DBA200",
"D  c #D4AA02",
"F  c #D1AE0D",
"G  c #D8B006",
"H  c #D2BC0B",
"J  c #C3A21B",
"K  c #C9A21E",
"L  c #C4B71F",
"P  c #C9B51A",
"I  c #C7B81E",
"U  c #D2B711",
"Y  c #E6A300",
"T  c #E9A600",
"R  c #E5AB00",
"E  c #EBAB01",
"W  c #ECB100",
"Q  c #E4B903",
"!  c #EDBB00",
"~  c #F2B300",
"^  c #F2BB00",
"/  c #C49821",
"(  c #C89A26",
")  c #CB9E24",
"_  c #CCA420",
"`  c #CBA226",
"'  c #C0A32B",
"]  c #C4AC31",
"[  c #C6B63D",
"{  c #ECB821",
"}  c #F2BE29",
"|  c #DCCA07",
" . c #D6C611",
".. c #DEC515",
"X. c #D7C21D",
"o. c #EDC200",
"O. c #EEC800",
"+. c #E6C60A",
"@. c #F1C201",
"#. c #F5CD00",
"$. c #F3C805",
"%. c #FBCB00",
"&. c #E0D306",
"*. c #E4DB06",
"=. c #F5D301",
"-. c #FFD906",
";. c #F9D708",
":. c #FBDB0B",
">. c #F5D711",
",. c #F3E406",
"<. c #FFE506",
"1. c #F9EB0A",
"2. c #FCF501",
"3. c #FFFE00",
"4. c #FFF00E",
"5. c #FFE313",
"6. c #FFEA15",
"7. c #FEE419",
"8. c #FFEB19",
"9. c #FFF019",
"0. c #F7CC24",
"q. c #FFCE20",
"w. c #F8CD26",
"e. c #F7C228",
"r. c #FED923",
"t. c #F8D128",
"y. c #B5964E",
"u. c #BBA543",
"i. c #BFA449",
"p. c #BDAD4C",
"a. c #B9A550",
"s. c #B6AA53",
"d. c #B09964",
"f. c #B19E75",
"g. c #BAAB65",
"h. c #B8B26D",
"j. c #B6AA73",
"k. c #B3AB77",
"l. c #C3AB45",
"z. c #C2AB64",
"x. c #C3B766",
"c. c #C2AB77",
"v. c #C5B679",
"b. c #97979A",
"n. c #97989B",
"m. c #98989A",
"M. c #B9AB8D",
"N. c #B5B090",
"B. c #9D9DA0",
"V. c #9DA1A2",
"C. c #A1A1A3",
"Z. c #AEAEAC",
"A. c #B1AFA0",
"S. c #B6B6A6",
"D. c #BDB8A0",
"F. c #B8B8AC",
"G. c #AEAEB3",
"H. c #AEAEB5",
"J. c #ADAEBF",
"K. c #AFB0B4",
"L. c #B1B2B5",
"P. c #BAB4B0",
"I. c #B2B2B8",
"U. c #B5B6BE",
"Y. c gray73",
"T. c #C8B68C",
"R. c #C1BF97",
"E. c #C7C48C",
"W. c #C7C39D",
"Q. c #CAC39C",
"!. c #C9C9B1",
"~. c #CBC5BB",
"^. c #DAD2BE",
"/. c #B4B4C2",
"(. c #B7B9C1",
"). c #BBBAC3",
"_. c #BDBEC0",
"`. c #B9BCCB",
"'. c #C2C2C3",
"]. c #C8C9C5",
"[. c gray79",
"{. c #C9CACC",
"}. c #CDCECE",
"|. c #D2CECA",
" X c #D0CECF",
".X c #D4CFCD",
"XX c #C3C4D3",
"oX c #C5C8D4",
"OX c #C6CBDA",
"+X c #CBD0DD",
"@X c #D8D4D1",
"#X c #D8D8D7",
"$X c #DFDAD8",
"%X c #E3DFDD",
"&X c #D4D5E3",
"*X c #D8D9E5",
"=X c #E7E4E3",
"-X c #EAE7E6",
";X c #EDEAE7",
":X c #EEEBEA",
">X c #E8E9EE",
",X c #F0EDEB",
"<X c #E9EBF4",
/* pixels */
"                                                                ",
"                                                                ",
"                                                                ",
"                            #X                                  ",
"                            I.).XX                              ",
"                          K.F.!.I.                              ",
"                        {.J.h.I Y.I.                            ",
"                        G.Z. .*.p.`.{.                          ",
"                      _./.s.3.3.H D./.                          ",
"                      I.S.| 3.3.3.M XX_.                        ",
"                    L.XXp.3.3.3.3.H Q.`.                        ",
"                    `.R.| v y y u &.] oX).                      ",
"                  I.}.[ 2.d h h s L +.v.oX                      ",
"                ].&XE.&.2.p g f a I 4.' =X).                    ",
"                ).].X.3.4.i a t 0 I 6.+.z.<X{.                  ",
"              I.<Xx.,.4.1.y e 9 8 P 5.;.J ^.oX                  ",
"              XX!...4.9.1.6 7 = = U :.>.Q i.<X'.                ",
"            U.>Xp.4.8.8.1.4 % * 2 U -.#.#.A T.+X                ",
"          '.&XW...8.7.7.>., o + & Z %.@.@.! b :X).              ",
"          /.#Xl.<.;.=.=.O.- . X # A ^ ^ W ~ A c.+X              ",
"        Y.*Xg.O.=.O.O.O.@.; . O 3 D ^ W W W E x ~.).            ",
"        I.F.F #.O.O.@.@.#.> . $ q D ^ W W E E V y.OX[.          ",
"      L.XXa.@.O.@.o.@.@.@.A l z A R E E E E T E N M.`.          ",
"    [.`.N.Z O.@.@.@.! ! ^ A k j l ~ E E T T Y Y V n XX).        ",
"    H.U.u.! @.@.! ! ! ^ ^ < . @ 5 S E E T Y Y T T N f.`.        ",
"  Y.(.k.G $.$.@.@.@.! ^ ^ : X 7 r B ~ E E E E E E Y b ).I.      ",
"  G.A.l.r.t.t.w.w.0.w.w.q.K 1 w c { e.} } } } } } e.C d./.      ",
"Y.(.j._ _ ` ) ) ) ) ) ) _ ) / x / ) / ) ( ) ) ) ( ) ) m P.I.    ",
"L.{.|.|.|.|.@X@X$X%X-X:X:X:X,X,X:X:X;X=X=X$X@X@X@X.X|.|. X'.    ",
"Y.B.m.b.b.n.m.m.m.B.B.V.C.C.C.C.C.C.C.V.B.B.m.m.m.m.n.m.m.C.    ",
"                                                                ",
"                                                                "
};
